<svg xmlns="http://www.w3.org/2000/svg" viewBox="0 0 32 32" width="32" height="32" fill="none">
  <!-- trRUSTt Favicon (pixel-optimized 32x32) -->

  <!-- Shield outline -->
  <path d="M6 3 L26 3 Q28 3 28 5 L28 18 C28 25 23 28 16 29 C9 28 4 25 4 18 L4 5 Q4 3 6 3 Z"
        stroke="#2563EB" stroke-width="2" stroke-linejoin="round" />

  <!-- Bar 1 -->
  <rect x="10" y="16" width="3" height="6" rx="0.5" fill="#2563EB" opacity="0.55" />

  <!-- Bar 2 -->
  <rect x="14.5" y="13" width="3" height="9" rx="0.5" fill="#2563EB" opacity="0.78" />

  <!-- Bar 3 -->
  <rect x="19" y="10" width="3" height="12" rx="0.5" fill="#7C3AED" />

  <!-- Sparkle -->
  <path d="M20.5 6 L21.2 7.3 L22.5 8 L21.2 8.7 L20.5 10 L19.8 8.7 L18.5 8 L19.8 7.3 Z" fill="#7C3AED" />
</svg>
