<svg xmlns="http://www.w3.org/2000/svg" viewBox="0 0 256 256" width="256" height="256" fill="none">
  <!-- trRUSTt Icon on Dark Background -->
  <!-- Concept: Trust (shield) + Data (ascending bars) + AI (sparkle) -->

  <!-- Dark background rounded squround -->
  <rect x="0" y="0" width="256" height="256" rx="36" fill="#0F172A" />

  <!-- Modern geometric shield outline -->
  <path d="M48 28 L208 28 Q216 28 216 36 L216 140 C216 196 180 222 128 228 C76 222 40 196 40 140 L40 36 Q40 28 48 28 Z"
        stroke="#2563EB" stroke-width="8" stroke-linejoin="round" />

  <!-- Bar 1 (shortest) — data foundation -->
  <rect x="86" y="114" width="22" height="56" rx="4" fill="#2563EB" opacity="0.55" />

  <!-- Bar 2 (medium) — data growth -->
  <rect x="118" y="96" width="22" height="74" rx="4" fill="#2563EB" opacity="0.78" />

  <!-- Bar 3 (tallest) — AI-amplified insight -->
  <rect x="150" y="78" width="22" height="92" rx="4" fill="#7C3AED" />

  <!-- 4-point sparkle — AI intelligence -->
  <path d="M161 41 L166 51 L176 55 L166 59 L161 69 L156 59 L146 55 L156 51 Z" fill="#7C3AED" />
</svg>
